<svg xmlns="http://www.w3.org/2000/svg" viewBox="0 0 1200 768"><defs><style>.cls-1,.cls-3{fill:#2f366c;}.cls-2{fill:#1e7bc2;}.cls-3{font-size:42px;font-family:Lato-Bold, Lato;font-weight:700;letter-spacing:0.39em;}.cls-4{letter-spacing:0.35em;}.cls-5{letter-spacing:0.39em;}.cls-6{fill:#02ecb9;}</style></defs><g id="imagotipo"><path class="cls-1" d="M393.55,455.8c4.15,2.89,6.31,7.22,6.31,13.12,0,12.28-9.3,17.71-26.48,17.71H336.66a.09.09,0,0,1-.1-.1V451.31a.09.09,0,0,1,.1-.09h26.78c1.94,0,19.16-1.26,25.21-3.67a116.31,116.31,0,0,0,13.58-6.7c.29-.15.58-.32.86-.48,8.9-5.19,13.42-14.44,13.42-26.67,0-19.46-15.78-31.91-45.23-31.91H313.86a.1.1,0,0,0-.09.1V504.41a.09.09,0,0,0,.09.1h60.92c31.56,0,48-12.27,48-33.31a33.37,33.37,0,0,0-3.69-15.88,28.33,28.33,0,0,0-6.77-8.34C410.91,445.76,392.37,455,393.55,455.8Zm-57-56a.1.1,0,0,1,.1-.1h32.16c15.78,0,24.72,5.61,24.72,17,0,11.22-8.94,16.83-24.72,16.83H336.66a.09.09,0,0,1-.1-.1Z"/><path class="cls-2" d="M542.36,475.64a8.05,8.05,0,0,0-8.83-3.12l0,0c-2.4.69-4.83,1.24-7.24,1.87-2.18.58-4.38,1.13-6.6,1.56l-1.19.25a.1.1,0,0,0-.06.15l17.39,24.93a7.5,7.5,0,0,0,6.15,3.21H560a1.34,1.34,0,0,0,1.11-2.11Z"/><path class="cls-1" d="M525.12,467.13c2.43-.71,5.09-1.59,7.52-2.3.69-.21,3.08-1.2,3.08-1.2,16.65-6.49,24.74-19.6,24.74-38.18,0-27.18-20-43.66-52.25-43.66h-50.4a.1.1,0,0,0-.09.1V504.41a.09.09,0,0,0,.09.1h22.6a.09.09,0,0,0,.1-.1V468.85a.09.09,0,0,1,.1-.1h27.6a41.73,41.73,0,0,0,4.74-.18S522.63,467.87,525.12,467.13Zm-18-17.14H480.61a.09.09,0,0,1-.1-.1V401.18a.09.09,0,0,1,.1-.1h26.55c20,0,30.33,8.94,30.33,24.37S527.15,450,507.16,450Z"/><path class="cls-1" d="M596.51,381.79H619.1a.1.1,0,0,1,.1.1V504.41a.09.09,0,0,1-.1.1H596.51a.09.09,0,0,1-.1-.1V381.89A.1.1,0,0,1,596.51,381.79Z"/><path class="cls-1" d="M723.11,381.79H700.79a.13.13,0,0,0-.09.06L645.56,504.37a.1.1,0,0,0,.09.14h23.28a.09.09,0,0,0,.09-.06l12.07-28.34,7.72-17.88,22.88-53.44a.1.1,0,0,1,.18,0l23,53.44H701.84a7.17,7.17,0,0,0-6.79,4.89c-1.46,4.28-2.52,8.57-4.12,12.86a.1.1,0,0,0,.09.13H742.4a.1.1,0,0,1,.09.06l12.22,28.28a.09.09,0,0,0,.09.06h23.63a.1.1,0,0,0,.09-.14L723.2,381.85A.11.11,0,0,0,723.11,381.79Z"/><path class="cls-2" d="M913.67,381.79H891.25a.1.1,0,0,0-.1.1V447a17.91,17.91,0,0,0,3.92,11.16c6,7.5,12.42,14.53,18.52,21.89a.1.1,0,0,0,.18-.06V381.89A.11.11,0,0,0,913.67,381.79Z"/><path class="cls-1" d="M909.34,488.89l-18.19-24h0L823.5,381.83a.12.12,0,0,0-.08,0H804.8a.1.1,0,0,0-.09.1V504.41a.09.09,0,0,0,.09.1h22.43a.1.1,0,0,0,.1-.1V421.69a.1.1,0,0,1,.17-.06L895,504.48a.08.08,0,0,0,.07,0h18.62a.1.1,0,0,0,.1-.1v-2.15a19.12,19.12,0,0,0-3.72-11.33l-18.84-25.69"/><text class="cls-3" transform="translate(428.41 564.39)">DEVE<tspan class="cls-4" x="175.17" y="0">L</tspan><tspan class="cls-5" x="211.67" y="0">OPER</tspan></text><polygon class="cls-6" points="714.59 269.79 689.71 284.15 664.82 298.52 639.93 312.88 615.05 327.25 615.05 298.52 639.93 284.15 664.82 269.79 639.93 255.41 615.05 241.05 615.05 212.32 639.93 226.68 664.82 241.05 689.71 255.41 714.59 269.79"/><polygon class="cls-2" points="615.05 338.52 615.05 367.26 590.16 352.89 565.27 338.52 540.39 324.15 515.51 309.79 540.39 295.42 565.27 281.05 590.16 266.68 615.05 252.32 615.05 281.05 590.16 295.42 565.27 309.79 590.16 324.15 615.05 338.52"/></g></svg>